<?xml version="1.0" encoding="UTF-8"?>
<svg height="18px" version="1.1" viewBox="0 0 18 18" width="18px" xmlns="http://www.w3.org/2000/svg">
    <!-- Generator: Sketch 52.6 (67491) - http://www.bohemiancoding.com/sketch -->
    <title>direction icon</title>
    <desc>Created with Sketch.</desc>
    <g fill="none" fill-rule="evenodd" id="New-UI" stroke="none" stroke-width="1">
        <g fill="#333333"
            id="Explore-Page---Nearby-Amenities-1-km-Radius-01---New" transform="translate(-163.000000, -299.000000)">
            <path
                d="M169.606445,311 L169.606445,308.457449 L173.415774,308.457449 L173.415774,310.512477 C174.459091,309.455769 175.497218,308.404278 176.5,307.388622 C175.478436,306.352862 174.44241,305.302414 173.404403,304.25 L173.404403,306.309924 L167.5,306.309924 L167.5,311 L169.606445,311 Z M172.018597,316.999875 C171.737959,316.998086 171.540521,316.889227 171.368404,316.716997 C169.925929,315.273255 168.482171,313.830835 167.038802,312.387988 C165.801662,311.151272 164.564483,309.914596 163.327381,308.677802 C162.892752,308.243338 162.89038,307.788697 163.323258,307.354816 C165.995716,304.676303 168.668524,301.998062 171.34176,299.320287 C171.766703,298.894687 172.228288,298.893171 172.651675,299.316166 C175.337552,301.999578 178.023041,304.683379 180.707984,307.367724 C181.090375,307.750052 181.10006,308.245049 180.720236,308.625278 C178.018529,311.329529 175.313942,314.030941 172.610523,316.733481 C172.437745,316.906256 172.234044,317.003996 172.018597,316.999875 Z"
                id="direction-icon"></path>
        </g>
    </g>
</svg>